<svg xmlns="http://www.w3.org/2000/svg" width="268.387" height="261.76" viewBox="0 0 42.607 41.555"><g fill="#fff"><path d="M21.304 0C9.539 0 0 9.537 0 21.304 0 30.716 6.104 38.7 14.569 41.518c1.064.197 1.455-.462 1.455-1.025 0-.507-.02-2.186-.029-3.966-5.926 1.289-7.177-2.514-7.177-2.514-.969-2.462-2.365-3.117-2.365-3.117-1.933-1.322.145-1.295.145-1.295 2.14.15 3.266 2.196 3.266 2.196 1.9 3.256 4.984 2.315 6.2 1.77.19-1.376.743-2.316 1.352-2.848-4.732-.539-9.706-2.366-9.706-10.528 0-2.326.832-4.226 2.195-5.718-.221-.537-.95-2.704.207-5.638 0 0 1.789-.573 5.86 2.184 1.699-.472 3.521-.71 5.332-.718 1.81.009 3.634.246 5.336.718 4.066-2.757 5.853-2.184 5.853-2.184 1.16 2.934.43 5.1.21 5.638 1.365 1.492 2.191 3.392 2.191 5.718 0 8.182-4.983 9.983-9.727 10.51.764.662 1.445 1.958 1.445 3.946 0 2.85-.025 5.145-.025 5.846 0 .568.384 1.232 1.463 1.023 8.46-2.82 14.557-10.803 14.557-20.212C42.607 9.537 33.07 0 21.304 0" fill-rule="evenodd"/><path d="M8.069 30.587c-.047.106-.214.138-.365.065-.155-.07-.242-.214-.191-.32.045-.109.212-.14.366-.066.155.07.243.215.19.321M8.932 31.55c-.102.094-.3.05-.435-.099-.14-.148-.166-.347-.063-.443.105-.094.298-.05.437.099.14.15.167.347.06.443M9.772 32.776c-.13.091-.345.006-.476-.183-.131-.19-.131-.417.003-.508.132-.091.342-.009.476.179.13.192.13.42-.003.512M10.922 33.962c-.116.129-.365.094-.547-.082-.186-.172-.238-.415-.121-.544.118-.13.368-.093.552.081.185.172.24.417.116.545M12.51 34.65c-.052.167-.291.242-.532.172-.241-.073-.399-.269-.35-.437.05-.168.29-.247.533-.171.241.072.4.266.349.436M14.254 34.778c.006.175-.2.321-.452.324-.255.006-.461-.136-.464-.31 0-.177.2-.32.454-.325.254-.005.462.136.462.31M15.876 34.502c.03.17-.146.347-.397.394-.248.045-.477-.061-.508-.23-.03-.176.148-.352.395-.398.252-.044.478.06.51.234"/></g></svg>